# xmcd
#
# Track frame offsets:
#	150
#	27026
#	57036
#	82848
#	108744
#	138565
#	165607
#	188739
#	218334
#	248094
#	265795
#	286974
#	304363
#	317348
#
# Disc length: 4433 seconds
#
# Revision: 1
# Processed by: cddbd v1.5.2PL0 Copyright (c) Steve Scherf et al.
# Submitted via: audiograbber 1.83.01
#
DISCID=b5114f0e
DTITLE=Kiera Cass - Selection Storys 2 - Herz oder Krone
DYEAR=2015
DGENRE=Jugend
TTITLE0=28 Selection Storys 2 - Herz oder Krone
TTITLE1=29 Selection Storys 2 - Herz oder Krone
TTITLE2=30 Selection Storys 2 - Herz oder Krone
TTITLE3=31 Selection Storys 2 - Herz oder Krone
TTITLE4=32 Selection Storys 2 - Herz oder Krone
TTITLE5=33 Selection Storys 2 - Herz oder Krone
TTITLE6=34 Selection Storys 2 - Herz oder Krone
TTITLE7=35 Selection Storys 2 - Herz oder Krone
TTITLE8=36 Selection Storys 2 - Herz oder Krone
TTITLE9=37 Selection Storys 2 - Herz oder Krone
TTITLE10=38 Selection Storys 2 - Herz oder Krone
TTITLE11=39 Selection Storys 2 - Herz oder Krone
TTITLE12=40 Selection Storys 2 - Herz oder Krone
TTITLE13=41 Selection Storys 2 - Herz oder Krone
EXTD=
EXTT0=
EXTT1=
EXTT2=
EXTT3=
EXTT4=
EXTT5=
EXTT6=
EXTT7=
EXTT8=
EXTT9=
EXTT10=
EXTT11=
EXTT12=
EXTT13=
PLAYORDER=
